G04 #@! TF.GenerationSoftware,KiCad,Pcbnew,7.0.1*
G04 #@! TF.CreationDate,2023-05-02T10:47:00+02:00*
G04 #@! TF.ProjectId,main,6d61696e-2e6b-4696-9361-645f70636258,rev?*
G04 #@! TF.SameCoordinates,Original*
G04 #@! TF.FileFunction,AssemblyDrawing,Bot*
%FSLAX46Y46*%
G04 Gerber Fmt 4.6, Leading zero omitted, Abs format (unit mm)*
G04 Created by KiCad (PCBNEW 7.0.1) date 2023-05-02 10:47:00*
%MOMM*%
%LPD*%
G01*
G04 APERTURE LIST*
%ADD10C,0.150000*%
%ADD11C,0.120000*%
%ADD12C,0.100000*%
G04 APERTURE END LIST*
D10*
X43979047Y-63063619D02*
X44550475Y-63063619D01*
X44264761Y-63063619D02*
X44264761Y-62063619D01*
X44264761Y-62063619D02*
X44359999Y-62206476D01*
X44359999Y-62206476D02*
X44455237Y-62301714D01*
X44455237Y-62301714D02*
X44550475Y-62349333D01*
X43074285Y-62063619D02*
X43550475Y-62063619D01*
X43550475Y-62063619D02*
X43598094Y-62539809D01*
X43598094Y-62539809D02*
X43550475Y-62492190D01*
X43550475Y-62492190D02*
X43455237Y-62444571D01*
X43455237Y-62444571D02*
X43217142Y-62444571D01*
X43217142Y-62444571D02*
X43121904Y-62492190D01*
X43121904Y-62492190D02*
X43074285Y-62539809D01*
X43074285Y-62539809D02*
X43026666Y-62635047D01*
X43026666Y-62635047D02*
X43026666Y-62873142D01*
X43026666Y-62873142D02*
X43074285Y-62968380D01*
X43074285Y-62968380D02*
X43121904Y-63016000D01*
X43121904Y-63016000D02*
X43217142Y-63063619D01*
X43217142Y-63063619D02*
X43455237Y-63063619D01*
X43455237Y-63063619D02*
X43550475Y-63016000D01*
X43550475Y-63016000D02*
X43598094Y-62968380D01*
X42407618Y-62063619D02*
X42312380Y-62063619D01*
X42312380Y-62063619D02*
X42217142Y-62111238D01*
X42217142Y-62111238D02*
X42169523Y-62158857D01*
X42169523Y-62158857D02*
X42121904Y-62254095D01*
X42121904Y-62254095D02*
X42074285Y-62444571D01*
X42074285Y-62444571D02*
X42074285Y-62682666D01*
X42074285Y-62682666D02*
X42121904Y-62873142D01*
X42121904Y-62873142D02*
X42169523Y-62968380D01*
X42169523Y-62968380D02*
X42217142Y-63016000D01*
X42217142Y-63016000D02*
X42312380Y-63063619D01*
X42312380Y-63063619D02*
X42407618Y-63063619D01*
X42407618Y-63063619D02*
X42502856Y-63016000D01*
X42502856Y-63016000D02*
X42550475Y-62968380D01*
X42550475Y-62968380D02*
X42598094Y-62873142D01*
X42598094Y-62873142D02*
X42645713Y-62682666D01*
X42645713Y-62682666D02*
X42645713Y-62444571D01*
X42645713Y-62444571D02*
X42598094Y-62254095D01*
X42598094Y-62254095D02*
X42550475Y-62158857D01*
X42550475Y-62158857D02*
X42502856Y-62111238D01*
X42502856Y-62111238D02*
X42407618Y-62063619D01*
X41217142Y-62396952D02*
X41217142Y-63063619D01*
X41645713Y-62396952D02*
X41645713Y-62920761D01*
X41645713Y-62920761D02*
X41598094Y-63016000D01*
X41598094Y-63016000D02*
X41502856Y-63063619D01*
X41502856Y-63063619D02*
X41359999Y-63063619D01*
X41359999Y-63063619D02*
X41264761Y-63016000D01*
X41264761Y-63016000D02*
X41217142Y-62968380D01*
X43026666Y-66068380D02*
X43074285Y-66116000D01*
X43074285Y-66116000D02*
X43217142Y-66163619D01*
X43217142Y-66163619D02*
X43312380Y-66163619D01*
X43312380Y-66163619D02*
X43455237Y-66116000D01*
X43455237Y-66116000D02*
X43550475Y-66020761D01*
X43550475Y-66020761D02*
X43598094Y-65925523D01*
X43598094Y-65925523D02*
X43645713Y-65735047D01*
X43645713Y-65735047D02*
X43645713Y-65592190D01*
X43645713Y-65592190D02*
X43598094Y-65401714D01*
X43598094Y-65401714D02*
X43550475Y-65306476D01*
X43550475Y-65306476D02*
X43455237Y-65211238D01*
X43455237Y-65211238D02*
X43312380Y-65163619D01*
X43312380Y-65163619D02*
X43217142Y-65163619D01*
X43217142Y-65163619D02*
X43074285Y-65211238D01*
X43074285Y-65211238D02*
X43026666Y-65258857D01*
X42693332Y-65163619D02*
X42026666Y-65163619D01*
X42026666Y-65163619D02*
X42455237Y-66163619D01*
X43979047Y-68143619D02*
X44550475Y-68143619D01*
X44264761Y-68143619D02*
X44264761Y-67143619D01*
X44264761Y-67143619D02*
X44359999Y-67286476D01*
X44359999Y-67286476D02*
X44455237Y-67381714D01*
X44455237Y-67381714D02*
X44550475Y-67429333D01*
X43074285Y-67143619D02*
X43550475Y-67143619D01*
X43550475Y-67143619D02*
X43598094Y-67619809D01*
X43598094Y-67619809D02*
X43550475Y-67572190D01*
X43550475Y-67572190D02*
X43455237Y-67524571D01*
X43455237Y-67524571D02*
X43217142Y-67524571D01*
X43217142Y-67524571D02*
X43121904Y-67572190D01*
X43121904Y-67572190D02*
X43074285Y-67619809D01*
X43074285Y-67619809D02*
X43026666Y-67715047D01*
X43026666Y-67715047D02*
X43026666Y-67953142D01*
X43026666Y-67953142D02*
X43074285Y-68048380D01*
X43074285Y-68048380D02*
X43121904Y-68096000D01*
X43121904Y-68096000D02*
X43217142Y-68143619D01*
X43217142Y-68143619D02*
X43455237Y-68143619D01*
X43455237Y-68143619D02*
X43550475Y-68096000D01*
X43550475Y-68096000D02*
X43598094Y-68048380D01*
X42407618Y-67143619D02*
X42312380Y-67143619D01*
X42312380Y-67143619D02*
X42217142Y-67191238D01*
X42217142Y-67191238D02*
X42169523Y-67238857D01*
X42169523Y-67238857D02*
X42121904Y-67334095D01*
X42121904Y-67334095D02*
X42074285Y-67524571D01*
X42074285Y-67524571D02*
X42074285Y-67762666D01*
X42074285Y-67762666D02*
X42121904Y-67953142D01*
X42121904Y-67953142D02*
X42169523Y-68048380D01*
X42169523Y-68048380D02*
X42217142Y-68096000D01*
X42217142Y-68096000D02*
X42312380Y-68143619D01*
X42312380Y-68143619D02*
X42407618Y-68143619D01*
X42407618Y-68143619D02*
X42502856Y-68096000D01*
X42502856Y-68096000D02*
X42550475Y-68048380D01*
X42550475Y-68048380D02*
X42598094Y-67953142D01*
X42598094Y-67953142D02*
X42645713Y-67762666D01*
X42645713Y-67762666D02*
X42645713Y-67524571D01*
X42645713Y-67524571D02*
X42598094Y-67334095D01*
X42598094Y-67334095D02*
X42550475Y-67238857D01*
X42550475Y-67238857D02*
X42502856Y-67191238D01*
X42502856Y-67191238D02*
X42407618Y-67143619D01*
X41217142Y-67476952D02*
X41217142Y-68143619D01*
X41645713Y-67476952D02*
X41645713Y-68000761D01*
X41645713Y-68000761D02*
X41598094Y-68096000D01*
X41598094Y-68096000D02*
X41502856Y-68143619D01*
X41502856Y-68143619D02*
X41359999Y-68143619D01*
X41359999Y-68143619D02*
X41264761Y-68096000D01*
X41264761Y-68096000D02*
X41217142Y-68048380D01*
X43026666Y-71148380D02*
X43074285Y-71196000D01*
X43074285Y-71196000D02*
X43217142Y-71243619D01*
X43217142Y-71243619D02*
X43312380Y-71243619D01*
X43312380Y-71243619D02*
X43455237Y-71196000D01*
X43455237Y-71196000D02*
X43550475Y-71100761D01*
X43550475Y-71100761D02*
X43598094Y-71005523D01*
X43598094Y-71005523D02*
X43645713Y-70815047D01*
X43645713Y-70815047D02*
X43645713Y-70672190D01*
X43645713Y-70672190D02*
X43598094Y-70481714D01*
X43598094Y-70481714D02*
X43550475Y-70386476D01*
X43550475Y-70386476D02*
X43455237Y-70291238D01*
X43455237Y-70291238D02*
X43312380Y-70243619D01*
X43312380Y-70243619D02*
X43217142Y-70243619D01*
X43217142Y-70243619D02*
X43074285Y-70291238D01*
X43074285Y-70291238D02*
X43026666Y-70338857D01*
X42550475Y-71243619D02*
X42359999Y-71243619D01*
X42359999Y-71243619D02*
X42264761Y-71196000D01*
X42264761Y-71196000D02*
X42217142Y-71148380D01*
X42217142Y-71148380D02*
X42121904Y-71005523D01*
X42121904Y-71005523D02*
X42074285Y-70815047D01*
X42074285Y-70815047D02*
X42074285Y-70434095D01*
X42074285Y-70434095D02*
X42121904Y-70338857D01*
X42121904Y-70338857D02*
X42169523Y-70291238D01*
X42169523Y-70291238D02*
X42264761Y-70243619D01*
X42264761Y-70243619D02*
X42455237Y-70243619D01*
X42455237Y-70243619D02*
X42550475Y-70291238D01*
X42550475Y-70291238D02*
X42598094Y-70338857D01*
X42598094Y-70338857D02*
X42645713Y-70434095D01*
X42645713Y-70434095D02*
X42645713Y-70672190D01*
X42645713Y-70672190D02*
X42598094Y-70767428D01*
X42598094Y-70767428D02*
X42550475Y-70815047D01*
X42550475Y-70815047D02*
X42455237Y-70862666D01*
X42455237Y-70862666D02*
X42264761Y-70862666D01*
X42264761Y-70862666D02*
X42169523Y-70815047D01*
X42169523Y-70815047D02*
X42121904Y-70767428D01*
X42121904Y-70767428D02*
X42074285Y-70672190D01*
X43979047Y-73223619D02*
X44550475Y-73223619D01*
X44264761Y-73223619D02*
X44264761Y-72223619D01*
X44264761Y-72223619D02*
X44359999Y-72366476D01*
X44359999Y-72366476D02*
X44455237Y-72461714D01*
X44455237Y-72461714D02*
X44550475Y-72509333D01*
X43074285Y-72223619D02*
X43550475Y-72223619D01*
X43550475Y-72223619D02*
X43598094Y-72699809D01*
X43598094Y-72699809D02*
X43550475Y-72652190D01*
X43550475Y-72652190D02*
X43455237Y-72604571D01*
X43455237Y-72604571D02*
X43217142Y-72604571D01*
X43217142Y-72604571D02*
X43121904Y-72652190D01*
X43121904Y-72652190D02*
X43074285Y-72699809D01*
X43074285Y-72699809D02*
X43026666Y-72795047D01*
X43026666Y-72795047D02*
X43026666Y-73033142D01*
X43026666Y-73033142D02*
X43074285Y-73128380D01*
X43074285Y-73128380D02*
X43121904Y-73176000D01*
X43121904Y-73176000D02*
X43217142Y-73223619D01*
X43217142Y-73223619D02*
X43455237Y-73223619D01*
X43455237Y-73223619D02*
X43550475Y-73176000D01*
X43550475Y-73176000D02*
X43598094Y-73128380D01*
X42407618Y-72223619D02*
X42312380Y-72223619D01*
X42312380Y-72223619D02*
X42217142Y-72271238D01*
X42217142Y-72271238D02*
X42169523Y-72318857D01*
X42169523Y-72318857D02*
X42121904Y-72414095D01*
X42121904Y-72414095D02*
X42074285Y-72604571D01*
X42074285Y-72604571D02*
X42074285Y-72842666D01*
X42074285Y-72842666D02*
X42121904Y-73033142D01*
X42121904Y-73033142D02*
X42169523Y-73128380D01*
X42169523Y-73128380D02*
X42217142Y-73176000D01*
X42217142Y-73176000D02*
X42312380Y-73223619D01*
X42312380Y-73223619D02*
X42407618Y-73223619D01*
X42407618Y-73223619D02*
X42502856Y-73176000D01*
X42502856Y-73176000D02*
X42550475Y-73128380D01*
X42550475Y-73128380D02*
X42598094Y-73033142D01*
X42598094Y-73033142D02*
X42645713Y-72842666D01*
X42645713Y-72842666D02*
X42645713Y-72604571D01*
X42645713Y-72604571D02*
X42598094Y-72414095D01*
X42598094Y-72414095D02*
X42550475Y-72318857D01*
X42550475Y-72318857D02*
X42502856Y-72271238D01*
X42502856Y-72271238D02*
X42407618Y-72223619D01*
X41217142Y-72556952D02*
X41217142Y-73223619D01*
X41645713Y-72556952D02*
X41645713Y-73080761D01*
X41645713Y-73080761D02*
X41598094Y-73176000D01*
X41598094Y-73176000D02*
X41502856Y-73223619D01*
X41502856Y-73223619D02*
X41359999Y-73223619D01*
X41359999Y-73223619D02*
X41264761Y-73176000D01*
X41264761Y-73176000D02*
X41217142Y-73128380D01*
X43502857Y-76228380D02*
X43550476Y-76276000D01*
X43550476Y-76276000D02*
X43693333Y-76323619D01*
X43693333Y-76323619D02*
X43788571Y-76323619D01*
X43788571Y-76323619D02*
X43931428Y-76276000D01*
X43931428Y-76276000D02*
X44026666Y-76180761D01*
X44026666Y-76180761D02*
X44074285Y-76085523D01*
X44074285Y-76085523D02*
X44121904Y-75895047D01*
X44121904Y-75895047D02*
X44121904Y-75752190D01*
X44121904Y-75752190D02*
X44074285Y-75561714D01*
X44074285Y-75561714D02*
X44026666Y-75466476D01*
X44026666Y-75466476D02*
X43931428Y-75371238D01*
X43931428Y-75371238D02*
X43788571Y-75323619D01*
X43788571Y-75323619D02*
X43693333Y-75323619D01*
X43693333Y-75323619D02*
X43550476Y-75371238D01*
X43550476Y-75371238D02*
X43502857Y-75418857D01*
X42550476Y-76323619D02*
X43121904Y-76323619D01*
X42836190Y-76323619D02*
X42836190Y-75323619D01*
X42836190Y-75323619D02*
X42931428Y-75466476D01*
X42931428Y-75466476D02*
X43026666Y-75561714D01*
X43026666Y-75561714D02*
X43121904Y-75609333D01*
X41598095Y-76323619D02*
X42169523Y-76323619D01*
X41883809Y-76323619D02*
X41883809Y-75323619D01*
X41883809Y-75323619D02*
X41979047Y-75466476D01*
X41979047Y-75466476D02*
X42074285Y-75561714D01*
X42074285Y-75561714D02*
X42169523Y-75609333D01*
X43979047Y-84907619D02*
X44550475Y-84907619D01*
X44264761Y-84907619D02*
X44264761Y-83907619D01*
X44264761Y-83907619D02*
X44359999Y-84050476D01*
X44359999Y-84050476D02*
X44455237Y-84145714D01*
X44455237Y-84145714D02*
X44550475Y-84193333D01*
X43074285Y-83907619D02*
X43550475Y-83907619D01*
X43550475Y-83907619D02*
X43598094Y-84383809D01*
X43598094Y-84383809D02*
X43550475Y-84336190D01*
X43550475Y-84336190D02*
X43455237Y-84288571D01*
X43455237Y-84288571D02*
X43217142Y-84288571D01*
X43217142Y-84288571D02*
X43121904Y-84336190D01*
X43121904Y-84336190D02*
X43074285Y-84383809D01*
X43074285Y-84383809D02*
X43026666Y-84479047D01*
X43026666Y-84479047D02*
X43026666Y-84717142D01*
X43026666Y-84717142D02*
X43074285Y-84812380D01*
X43074285Y-84812380D02*
X43121904Y-84860000D01*
X43121904Y-84860000D02*
X43217142Y-84907619D01*
X43217142Y-84907619D02*
X43455237Y-84907619D01*
X43455237Y-84907619D02*
X43550475Y-84860000D01*
X43550475Y-84860000D02*
X43598094Y-84812380D01*
X42407618Y-83907619D02*
X42312380Y-83907619D01*
X42312380Y-83907619D02*
X42217142Y-83955238D01*
X42217142Y-83955238D02*
X42169523Y-84002857D01*
X42169523Y-84002857D02*
X42121904Y-84098095D01*
X42121904Y-84098095D02*
X42074285Y-84288571D01*
X42074285Y-84288571D02*
X42074285Y-84526666D01*
X42074285Y-84526666D02*
X42121904Y-84717142D01*
X42121904Y-84717142D02*
X42169523Y-84812380D01*
X42169523Y-84812380D02*
X42217142Y-84860000D01*
X42217142Y-84860000D02*
X42312380Y-84907619D01*
X42312380Y-84907619D02*
X42407618Y-84907619D01*
X42407618Y-84907619D02*
X42502856Y-84860000D01*
X42502856Y-84860000D02*
X42550475Y-84812380D01*
X42550475Y-84812380D02*
X42598094Y-84717142D01*
X42598094Y-84717142D02*
X42645713Y-84526666D01*
X42645713Y-84526666D02*
X42645713Y-84288571D01*
X42645713Y-84288571D02*
X42598094Y-84098095D01*
X42598094Y-84098095D02*
X42550475Y-84002857D01*
X42550475Y-84002857D02*
X42502856Y-83955238D01*
X42502856Y-83955238D02*
X42407618Y-83907619D01*
X41217142Y-84240952D02*
X41217142Y-84907619D01*
X41645713Y-84240952D02*
X41645713Y-84764761D01*
X41645713Y-84764761D02*
X41598094Y-84860000D01*
X41598094Y-84860000D02*
X41502856Y-84907619D01*
X41502856Y-84907619D02*
X41359999Y-84907619D01*
X41359999Y-84907619D02*
X41264761Y-84860000D01*
X41264761Y-84860000D02*
X41217142Y-84812380D01*
X43502857Y-87912380D02*
X43550476Y-87960000D01*
X43550476Y-87960000D02*
X43693333Y-88007619D01*
X43693333Y-88007619D02*
X43788571Y-88007619D01*
X43788571Y-88007619D02*
X43931428Y-87960000D01*
X43931428Y-87960000D02*
X44026666Y-87864761D01*
X44026666Y-87864761D02*
X44074285Y-87769523D01*
X44074285Y-87769523D02*
X44121904Y-87579047D01*
X44121904Y-87579047D02*
X44121904Y-87436190D01*
X44121904Y-87436190D02*
X44074285Y-87245714D01*
X44074285Y-87245714D02*
X44026666Y-87150476D01*
X44026666Y-87150476D02*
X43931428Y-87055238D01*
X43931428Y-87055238D02*
X43788571Y-87007619D01*
X43788571Y-87007619D02*
X43693333Y-87007619D01*
X43693333Y-87007619D02*
X43550476Y-87055238D01*
X43550476Y-87055238D02*
X43502857Y-87102857D01*
X42550476Y-88007619D02*
X43121904Y-88007619D01*
X42836190Y-88007619D02*
X42836190Y-87007619D01*
X42836190Y-87007619D02*
X42931428Y-87150476D01*
X42931428Y-87150476D02*
X43026666Y-87245714D01*
X43026666Y-87245714D02*
X43121904Y-87293333D01*
X42217142Y-87007619D02*
X41598095Y-87007619D01*
X41598095Y-87007619D02*
X41931428Y-87388571D01*
X41931428Y-87388571D02*
X41788571Y-87388571D01*
X41788571Y-87388571D02*
X41693333Y-87436190D01*
X41693333Y-87436190D02*
X41645714Y-87483809D01*
X41645714Y-87483809D02*
X41598095Y-87579047D01*
X41598095Y-87579047D02*
X41598095Y-87817142D01*
X41598095Y-87817142D02*
X41645714Y-87912380D01*
X41645714Y-87912380D02*
X41693333Y-87960000D01*
X41693333Y-87960000D02*
X41788571Y-88007619D01*
X41788571Y-88007619D02*
X42074285Y-88007619D01*
X42074285Y-88007619D02*
X42169523Y-87960000D01*
X42169523Y-87960000D02*
X42217142Y-87912380D01*
X43979047Y-89987619D02*
X44550475Y-89987619D01*
X44264761Y-89987619D02*
X44264761Y-88987619D01*
X44264761Y-88987619D02*
X44359999Y-89130476D01*
X44359999Y-89130476D02*
X44455237Y-89225714D01*
X44455237Y-89225714D02*
X44550475Y-89273333D01*
X43074285Y-88987619D02*
X43550475Y-88987619D01*
X43550475Y-88987619D02*
X43598094Y-89463809D01*
X43598094Y-89463809D02*
X43550475Y-89416190D01*
X43550475Y-89416190D02*
X43455237Y-89368571D01*
X43455237Y-89368571D02*
X43217142Y-89368571D01*
X43217142Y-89368571D02*
X43121904Y-89416190D01*
X43121904Y-89416190D02*
X43074285Y-89463809D01*
X43074285Y-89463809D02*
X43026666Y-89559047D01*
X43026666Y-89559047D02*
X43026666Y-89797142D01*
X43026666Y-89797142D02*
X43074285Y-89892380D01*
X43074285Y-89892380D02*
X43121904Y-89940000D01*
X43121904Y-89940000D02*
X43217142Y-89987619D01*
X43217142Y-89987619D02*
X43455237Y-89987619D01*
X43455237Y-89987619D02*
X43550475Y-89940000D01*
X43550475Y-89940000D02*
X43598094Y-89892380D01*
X42407618Y-88987619D02*
X42312380Y-88987619D01*
X42312380Y-88987619D02*
X42217142Y-89035238D01*
X42217142Y-89035238D02*
X42169523Y-89082857D01*
X42169523Y-89082857D02*
X42121904Y-89178095D01*
X42121904Y-89178095D02*
X42074285Y-89368571D01*
X42074285Y-89368571D02*
X42074285Y-89606666D01*
X42074285Y-89606666D02*
X42121904Y-89797142D01*
X42121904Y-89797142D02*
X42169523Y-89892380D01*
X42169523Y-89892380D02*
X42217142Y-89940000D01*
X42217142Y-89940000D02*
X42312380Y-89987619D01*
X42312380Y-89987619D02*
X42407618Y-89987619D01*
X42407618Y-89987619D02*
X42502856Y-89940000D01*
X42502856Y-89940000D02*
X42550475Y-89892380D01*
X42550475Y-89892380D02*
X42598094Y-89797142D01*
X42598094Y-89797142D02*
X42645713Y-89606666D01*
X42645713Y-89606666D02*
X42645713Y-89368571D01*
X42645713Y-89368571D02*
X42598094Y-89178095D01*
X42598094Y-89178095D02*
X42550475Y-89082857D01*
X42550475Y-89082857D02*
X42502856Y-89035238D01*
X42502856Y-89035238D02*
X42407618Y-88987619D01*
X41217142Y-89320952D02*
X41217142Y-89987619D01*
X41645713Y-89320952D02*
X41645713Y-89844761D01*
X41645713Y-89844761D02*
X41598094Y-89940000D01*
X41598094Y-89940000D02*
X41502856Y-89987619D01*
X41502856Y-89987619D02*
X41359999Y-89987619D01*
X41359999Y-89987619D02*
X41264761Y-89940000D01*
X41264761Y-89940000D02*
X41217142Y-89892380D01*
X43502857Y-92992380D02*
X43550476Y-93040000D01*
X43550476Y-93040000D02*
X43693333Y-93087619D01*
X43693333Y-93087619D02*
X43788571Y-93087619D01*
X43788571Y-93087619D02*
X43931428Y-93040000D01*
X43931428Y-93040000D02*
X44026666Y-92944761D01*
X44026666Y-92944761D02*
X44074285Y-92849523D01*
X44074285Y-92849523D02*
X44121904Y-92659047D01*
X44121904Y-92659047D02*
X44121904Y-92516190D01*
X44121904Y-92516190D02*
X44074285Y-92325714D01*
X44074285Y-92325714D02*
X44026666Y-92230476D01*
X44026666Y-92230476D02*
X43931428Y-92135238D01*
X43931428Y-92135238D02*
X43788571Y-92087619D01*
X43788571Y-92087619D02*
X43693333Y-92087619D01*
X43693333Y-92087619D02*
X43550476Y-92135238D01*
X43550476Y-92135238D02*
X43502857Y-92182857D01*
X42550476Y-93087619D02*
X43121904Y-93087619D01*
X42836190Y-93087619D02*
X42836190Y-92087619D01*
X42836190Y-92087619D02*
X42931428Y-92230476D01*
X42931428Y-92230476D02*
X43026666Y-92325714D01*
X43026666Y-92325714D02*
X43121904Y-92373333D01*
X41645714Y-92087619D02*
X42121904Y-92087619D01*
X42121904Y-92087619D02*
X42169523Y-92563809D01*
X42169523Y-92563809D02*
X42121904Y-92516190D01*
X42121904Y-92516190D02*
X42026666Y-92468571D01*
X42026666Y-92468571D02*
X41788571Y-92468571D01*
X41788571Y-92468571D02*
X41693333Y-92516190D01*
X41693333Y-92516190D02*
X41645714Y-92563809D01*
X41645714Y-92563809D02*
X41598095Y-92659047D01*
X41598095Y-92659047D02*
X41598095Y-92897142D01*
X41598095Y-92897142D02*
X41645714Y-92992380D01*
X41645714Y-92992380D02*
X41693333Y-93040000D01*
X41693333Y-93040000D02*
X41788571Y-93087619D01*
X41788571Y-93087619D02*
X42026666Y-93087619D01*
X42026666Y-93087619D02*
X42121904Y-93040000D01*
X42121904Y-93040000D02*
X42169523Y-92992380D01*
X43979047Y-95067619D02*
X44550475Y-95067619D01*
X44264761Y-95067619D02*
X44264761Y-94067619D01*
X44264761Y-94067619D02*
X44359999Y-94210476D01*
X44359999Y-94210476D02*
X44455237Y-94305714D01*
X44455237Y-94305714D02*
X44550475Y-94353333D01*
X43074285Y-94067619D02*
X43550475Y-94067619D01*
X43550475Y-94067619D02*
X43598094Y-94543809D01*
X43598094Y-94543809D02*
X43550475Y-94496190D01*
X43550475Y-94496190D02*
X43455237Y-94448571D01*
X43455237Y-94448571D02*
X43217142Y-94448571D01*
X43217142Y-94448571D02*
X43121904Y-94496190D01*
X43121904Y-94496190D02*
X43074285Y-94543809D01*
X43074285Y-94543809D02*
X43026666Y-94639047D01*
X43026666Y-94639047D02*
X43026666Y-94877142D01*
X43026666Y-94877142D02*
X43074285Y-94972380D01*
X43074285Y-94972380D02*
X43121904Y-95020000D01*
X43121904Y-95020000D02*
X43217142Y-95067619D01*
X43217142Y-95067619D02*
X43455237Y-95067619D01*
X43455237Y-95067619D02*
X43550475Y-95020000D01*
X43550475Y-95020000D02*
X43598094Y-94972380D01*
X42407618Y-94067619D02*
X42312380Y-94067619D01*
X42312380Y-94067619D02*
X42217142Y-94115238D01*
X42217142Y-94115238D02*
X42169523Y-94162857D01*
X42169523Y-94162857D02*
X42121904Y-94258095D01*
X42121904Y-94258095D02*
X42074285Y-94448571D01*
X42074285Y-94448571D02*
X42074285Y-94686666D01*
X42074285Y-94686666D02*
X42121904Y-94877142D01*
X42121904Y-94877142D02*
X42169523Y-94972380D01*
X42169523Y-94972380D02*
X42217142Y-95020000D01*
X42217142Y-95020000D02*
X42312380Y-95067619D01*
X42312380Y-95067619D02*
X42407618Y-95067619D01*
X42407618Y-95067619D02*
X42502856Y-95020000D01*
X42502856Y-95020000D02*
X42550475Y-94972380D01*
X42550475Y-94972380D02*
X42598094Y-94877142D01*
X42598094Y-94877142D02*
X42645713Y-94686666D01*
X42645713Y-94686666D02*
X42645713Y-94448571D01*
X42645713Y-94448571D02*
X42598094Y-94258095D01*
X42598094Y-94258095D02*
X42550475Y-94162857D01*
X42550475Y-94162857D02*
X42502856Y-94115238D01*
X42502856Y-94115238D02*
X42407618Y-94067619D01*
X41217142Y-94400952D02*
X41217142Y-95067619D01*
X41645713Y-94400952D02*
X41645713Y-94924761D01*
X41645713Y-94924761D02*
X41598094Y-95020000D01*
X41598094Y-95020000D02*
X41502856Y-95067619D01*
X41502856Y-95067619D02*
X41359999Y-95067619D01*
X41359999Y-95067619D02*
X41264761Y-95020000D01*
X41264761Y-95020000D02*
X41217142Y-94972380D01*
X43502857Y-98072380D02*
X43550476Y-98120000D01*
X43550476Y-98120000D02*
X43693333Y-98167619D01*
X43693333Y-98167619D02*
X43788571Y-98167619D01*
X43788571Y-98167619D02*
X43931428Y-98120000D01*
X43931428Y-98120000D02*
X44026666Y-98024761D01*
X44026666Y-98024761D02*
X44074285Y-97929523D01*
X44074285Y-97929523D02*
X44121904Y-97739047D01*
X44121904Y-97739047D02*
X44121904Y-97596190D01*
X44121904Y-97596190D02*
X44074285Y-97405714D01*
X44074285Y-97405714D02*
X44026666Y-97310476D01*
X44026666Y-97310476D02*
X43931428Y-97215238D01*
X43931428Y-97215238D02*
X43788571Y-97167619D01*
X43788571Y-97167619D02*
X43693333Y-97167619D01*
X43693333Y-97167619D02*
X43550476Y-97215238D01*
X43550476Y-97215238D02*
X43502857Y-97262857D01*
X42550476Y-98167619D02*
X43121904Y-98167619D01*
X42836190Y-98167619D02*
X42836190Y-97167619D01*
X42836190Y-97167619D02*
X42931428Y-97310476D01*
X42931428Y-97310476D02*
X43026666Y-97405714D01*
X43026666Y-97405714D02*
X43121904Y-97453333D01*
X42217142Y-97167619D02*
X41550476Y-97167619D01*
X41550476Y-97167619D02*
X41979047Y-98167619D01*
X43979047Y-100147619D02*
X44550475Y-100147619D01*
X44264761Y-100147619D02*
X44264761Y-99147619D01*
X44264761Y-99147619D02*
X44359999Y-99290476D01*
X44359999Y-99290476D02*
X44455237Y-99385714D01*
X44455237Y-99385714D02*
X44550475Y-99433333D01*
X43074285Y-99147619D02*
X43550475Y-99147619D01*
X43550475Y-99147619D02*
X43598094Y-99623809D01*
X43598094Y-99623809D02*
X43550475Y-99576190D01*
X43550475Y-99576190D02*
X43455237Y-99528571D01*
X43455237Y-99528571D02*
X43217142Y-99528571D01*
X43217142Y-99528571D02*
X43121904Y-99576190D01*
X43121904Y-99576190D02*
X43074285Y-99623809D01*
X43074285Y-99623809D02*
X43026666Y-99719047D01*
X43026666Y-99719047D02*
X43026666Y-99957142D01*
X43026666Y-99957142D02*
X43074285Y-100052380D01*
X43074285Y-100052380D02*
X43121904Y-100100000D01*
X43121904Y-100100000D02*
X43217142Y-100147619D01*
X43217142Y-100147619D02*
X43455237Y-100147619D01*
X43455237Y-100147619D02*
X43550475Y-100100000D01*
X43550475Y-100100000D02*
X43598094Y-100052380D01*
X42407618Y-99147619D02*
X42312380Y-99147619D01*
X42312380Y-99147619D02*
X42217142Y-99195238D01*
X42217142Y-99195238D02*
X42169523Y-99242857D01*
X42169523Y-99242857D02*
X42121904Y-99338095D01*
X42121904Y-99338095D02*
X42074285Y-99528571D01*
X42074285Y-99528571D02*
X42074285Y-99766666D01*
X42074285Y-99766666D02*
X42121904Y-99957142D01*
X42121904Y-99957142D02*
X42169523Y-100052380D01*
X42169523Y-100052380D02*
X42217142Y-100100000D01*
X42217142Y-100100000D02*
X42312380Y-100147619D01*
X42312380Y-100147619D02*
X42407618Y-100147619D01*
X42407618Y-100147619D02*
X42502856Y-100100000D01*
X42502856Y-100100000D02*
X42550475Y-100052380D01*
X42550475Y-100052380D02*
X42598094Y-99957142D01*
X42598094Y-99957142D02*
X42645713Y-99766666D01*
X42645713Y-99766666D02*
X42645713Y-99528571D01*
X42645713Y-99528571D02*
X42598094Y-99338095D01*
X42598094Y-99338095D02*
X42550475Y-99242857D01*
X42550475Y-99242857D02*
X42502856Y-99195238D01*
X42502856Y-99195238D02*
X42407618Y-99147619D01*
X41217142Y-99480952D02*
X41217142Y-100147619D01*
X41645713Y-99480952D02*
X41645713Y-100004761D01*
X41645713Y-100004761D02*
X41598094Y-100100000D01*
X41598094Y-100100000D02*
X41502856Y-100147619D01*
X41502856Y-100147619D02*
X41359999Y-100147619D01*
X41359999Y-100147619D02*
X41264761Y-100100000D01*
X41264761Y-100100000D02*
X41217142Y-100052380D01*
X43502857Y-103152380D02*
X43550476Y-103200000D01*
X43550476Y-103200000D02*
X43693333Y-103247619D01*
X43693333Y-103247619D02*
X43788571Y-103247619D01*
X43788571Y-103247619D02*
X43931428Y-103200000D01*
X43931428Y-103200000D02*
X44026666Y-103104761D01*
X44026666Y-103104761D02*
X44074285Y-103009523D01*
X44074285Y-103009523D02*
X44121904Y-102819047D01*
X44121904Y-102819047D02*
X44121904Y-102676190D01*
X44121904Y-102676190D02*
X44074285Y-102485714D01*
X44074285Y-102485714D02*
X44026666Y-102390476D01*
X44026666Y-102390476D02*
X43931428Y-102295238D01*
X43931428Y-102295238D02*
X43788571Y-102247619D01*
X43788571Y-102247619D02*
X43693333Y-102247619D01*
X43693333Y-102247619D02*
X43550476Y-102295238D01*
X43550476Y-102295238D02*
X43502857Y-102342857D01*
X42550476Y-103247619D02*
X43121904Y-103247619D01*
X42836190Y-103247619D02*
X42836190Y-102247619D01*
X42836190Y-102247619D02*
X42931428Y-102390476D01*
X42931428Y-102390476D02*
X43026666Y-102485714D01*
X43026666Y-102485714D02*
X43121904Y-102533333D01*
X42074285Y-103247619D02*
X41883809Y-103247619D01*
X41883809Y-103247619D02*
X41788571Y-103200000D01*
X41788571Y-103200000D02*
X41740952Y-103152380D01*
X41740952Y-103152380D02*
X41645714Y-103009523D01*
X41645714Y-103009523D02*
X41598095Y-102819047D01*
X41598095Y-102819047D02*
X41598095Y-102438095D01*
X41598095Y-102438095D02*
X41645714Y-102342857D01*
X41645714Y-102342857D02*
X41693333Y-102295238D01*
X41693333Y-102295238D02*
X41788571Y-102247619D01*
X41788571Y-102247619D02*
X41979047Y-102247619D01*
X41979047Y-102247619D02*
X42074285Y-102295238D01*
X42074285Y-102295238D02*
X42121904Y-102342857D01*
X42121904Y-102342857D02*
X42169523Y-102438095D01*
X42169523Y-102438095D02*
X42169523Y-102676190D01*
X42169523Y-102676190D02*
X42121904Y-102771428D01*
X42121904Y-102771428D02*
X42074285Y-102819047D01*
X42074285Y-102819047D02*
X41979047Y-102866666D01*
X41979047Y-102866666D02*
X41788571Y-102866666D01*
X41788571Y-102866666D02*
X41693333Y-102819047D01*
X41693333Y-102819047D02*
X41645714Y-102771428D01*
X41645714Y-102771428D02*
X41598095Y-102676190D01*
X43979047Y-111831619D02*
X44550475Y-111831619D01*
X44264761Y-111831619D02*
X44264761Y-110831619D01*
X44264761Y-110831619D02*
X44359999Y-110974476D01*
X44359999Y-110974476D02*
X44455237Y-111069714D01*
X44455237Y-111069714D02*
X44550475Y-111117333D01*
X43074285Y-110831619D02*
X43550475Y-110831619D01*
X43550475Y-110831619D02*
X43598094Y-111307809D01*
X43598094Y-111307809D02*
X43550475Y-111260190D01*
X43550475Y-111260190D02*
X43455237Y-111212571D01*
X43455237Y-111212571D02*
X43217142Y-111212571D01*
X43217142Y-111212571D02*
X43121904Y-111260190D01*
X43121904Y-111260190D02*
X43074285Y-111307809D01*
X43074285Y-111307809D02*
X43026666Y-111403047D01*
X43026666Y-111403047D02*
X43026666Y-111641142D01*
X43026666Y-111641142D02*
X43074285Y-111736380D01*
X43074285Y-111736380D02*
X43121904Y-111784000D01*
X43121904Y-111784000D02*
X43217142Y-111831619D01*
X43217142Y-111831619D02*
X43455237Y-111831619D01*
X43455237Y-111831619D02*
X43550475Y-111784000D01*
X43550475Y-111784000D02*
X43598094Y-111736380D01*
X42407618Y-110831619D02*
X42312380Y-110831619D01*
X42312380Y-110831619D02*
X42217142Y-110879238D01*
X42217142Y-110879238D02*
X42169523Y-110926857D01*
X42169523Y-110926857D02*
X42121904Y-111022095D01*
X42121904Y-111022095D02*
X42074285Y-111212571D01*
X42074285Y-111212571D02*
X42074285Y-111450666D01*
X42074285Y-111450666D02*
X42121904Y-111641142D01*
X42121904Y-111641142D02*
X42169523Y-111736380D01*
X42169523Y-111736380D02*
X42217142Y-111784000D01*
X42217142Y-111784000D02*
X42312380Y-111831619D01*
X42312380Y-111831619D02*
X42407618Y-111831619D01*
X42407618Y-111831619D02*
X42502856Y-111784000D01*
X42502856Y-111784000D02*
X42550475Y-111736380D01*
X42550475Y-111736380D02*
X42598094Y-111641142D01*
X42598094Y-111641142D02*
X42645713Y-111450666D01*
X42645713Y-111450666D02*
X42645713Y-111212571D01*
X42645713Y-111212571D02*
X42598094Y-111022095D01*
X42598094Y-111022095D02*
X42550475Y-110926857D01*
X42550475Y-110926857D02*
X42502856Y-110879238D01*
X42502856Y-110879238D02*
X42407618Y-110831619D01*
X41217142Y-111164952D02*
X41217142Y-111831619D01*
X41645713Y-111164952D02*
X41645713Y-111688761D01*
X41645713Y-111688761D02*
X41598094Y-111784000D01*
X41598094Y-111784000D02*
X41502856Y-111831619D01*
X41502856Y-111831619D02*
X41359999Y-111831619D01*
X41359999Y-111831619D02*
X41264761Y-111784000D01*
X41264761Y-111784000D02*
X41217142Y-111736380D01*
X43502857Y-114836380D02*
X43550476Y-114884000D01*
X43550476Y-114884000D02*
X43693333Y-114931619D01*
X43693333Y-114931619D02*
X43788571Y-114931619D01*
X43788571Y-114931619D02*
X43931428Y-114884000D01*
X43931428Y-114884000D02*
X44026666Y-114788761D01*
X44026666Y-114788761D02*
X44074285Y-114693523D01*
X44074285Y-114693523D02*
X44121904Y-114503047D01*
X44121904Y-114503047D02*
X44121904Y-114360190D01*
X44121904Y-114360190D02*
X44074285Y-114169714D01*
X44074285Y-114169714D02*
X44026666Y-114074476D01*
X44026666Y-114074476D02*
X43931428Y-113979238D01*
X43931428Y-113979238D02*
X43788571Y-113931619D01*
X43788571Y-113931619D02*
X43693333Y-113931619D01*
X43693333Y-113931619D02*
X43550476Y-113979238D01*
X43550476Y-113979238D02*
X43502857Y-114026857D01*
X43121904Y-114026857D02*
X43074285Y-113979238D01*
X43074285Y-113979238D02*
X42979047Y-113931619D01*
X42979047Y-113931619D02*
X42740952Y-113931619D01*
X42740952Y-113931619D02*
X42645714Y-113979238D01*
X42645714Y-113979238D02*
X42598095Y-114026857D01*
X42598095Y-114026857D02*
X42550476Y-114122095D01*
X42550476Y-114122095D02*
X42550476Y-114217333D01*
X42550476Y-114217333D02*
X42598095Y-114360190D01*
X42598095Y-114360190D02*
X43169523Y-114931619D01*
X43169523Y-114931619D02*
X42550476Y-114931619D01*
X41598095Y-114931619D02*
X42169523Y-114931619D01*
X41883809Y-114931619D02*
X41883809Y-113931619D01*
X41883809Y-113931619D02*
X41979047Y-114074476D01*
X41979047Y-114074476D02*
X42074285Y-114169714D01*
X42074285Y-114169714D02*
X42169523Y-114217333D01*
X43979047Y-116911619D02*
X44550475Y-116911619D01*
X44264761Y-116911619D02*
X44264761Y-115911619D01*
X44264761Y-115911619D02*
X44359999Y-116054476D01*
X44359999Y-116054476D02*
X44455237Y-116149714D01*
X44455237Y-116149714D02*
X44550475Y-116197333D01*
X43074285Y-115911619D02*
X43550475Y-115911619D01*
X43550475Y-115911619D02*
X43598094Y-116387809D01*
X43598094Y-116387809D02*
X43550475Y-116340190D01*
X43550475Y-116340190D02*
X43455237Y-116292571D01*
X43455237Y-116292571D02*
X43217142Y-116292571D01*
X43217142Y-116292571D02*
X43121904Y-116340190D01*
X43121904Y-116340190D02*
X43074285Y-116387809D01*
X43074285Y-116387809D02*
X43026666Y-116483047D01*
X43026666Y-116483047D02*
X43026666Y-116721142D01*
X43026666Y-116721142D02*
X43074285Y-116816380D01*
X43074285Y-116816380D02*
X43121904Y-116864000D01*
X43121904Y-116864000D02*
X43217142Y-116911619D01*
X43217142Y-116911619D02*
X43455237Y-116911619D01*
X43455237Y-116911619D02*
X43550475Y-116864000D01*
X43550475Y-116864000D02*
X43598094Y-116816380D01*
X42407618Y-115911619D02*
X42312380Y-115911619D01*
X42312380Y-115911619D02*
X42217142Y-115959238D01*
X42217142Y-115959238D02*
X42169523Y-116006857D01*
X42169523Y-116006857D02*
X42121904Y-116102095D01*
X42121904Y-116102095D02*
X42074285Y-116292571D01*
X42074285Y-116292571D02*
X42074285Y-116530666D01*
X42074285Y-116530666D02*
X42121904Y-116721142D01*
X42121904Y-116721142D02*
X42169523Y-116816380D01*
X42169523Y-116816380D02*
X42217142Y-116864000D01*
X42217142Y-116864000D02*
X42312380Y-116911619D01*
X42312380Y-116911619D02*
X42407618Y-116911619D01*
X42407618Y-116911619D02*
X42502856Y-116864000D01*
X42502856Y-116864000D02*
X42550475Y-116816380D01*
X42550475Y-116816380D02*
X42598094Y-116721142D01*
X42598094Y-116721142D02*
X42645713Y-116530666D01*
X42645713Y-116530666D02*
X42645713Y-116292571D01*
X42645713Y-116292571D02*
X42598094Y-116102095D01*
X42598094Y-116102095D02*
X42550475Y-116006857D01*
X42550475Y-116006857D02*
X42502856Y-115959238D01*
X42502856Y-115959238D02*
X42407618Y-115911619D01*
X41217142Y-116244952D02*
X41217142Y-116911619D01*
X41645713Y-116244952D02*
X41645713Y-116768761D01*
X41645713Y-116768761D02*
X41598094Y-116864000D01*
X41598094Y-116864000D02*
X41502856Y-116911619D01*
X41502856Y-116911619D02*
X41359999Y-116911619D01*
X41359999Y-116911619D02*
X41264761Y-116864000D01*
X41264761Y-116864000D02*
X41217142Y-116816380D01*
X43502857Y-119916380D02*
X43550476Y-119964000D01*
X43550476Y-119964000D02*
X43693333Y-120011619D01*
X43693333Y-120011619D02*
X43788571Y-120011619D01*
X43788571Y-120011619D02*
X43931428Y-119964000D01*
X43931428Y-119964000D02*
X44026666Y-119868761D01*
X44026666Y-119868761D02*
X44074285Y-119773523D01*
X44074285Y-119773523D02*
X44121904Y-119583047D01*
X44121904Y-119583047D02*
X44121904Y-119440190D01*
X44121904Y-119440190D02*
X44074285Y-119249714D01*
X44074285Y-119249714D02*
X44026666Y-119154476D01*
X44026666Y-119154476D02*
X43931428Y-119059238D01*
X43931428Y-119059238D02*
X43788571Y-119011619D01*
X43788571Y-119011619D02*
X43693333Y-119011619D01*
X43693333Y-119011619D02*
X43550476Y-119059238D01*
X43550476Y-119059238D02*
X43502857Y-119106857D01*
X43121904Y-119106857D02*
X43074285Y-119059238D01*
X43074285Y-119059238D02*
X42979047Y-119011619D01*
X42979047Y-119011619D02*
X42740952Y-119011619D01*
X42740952Y-119011619D02*
X42645714Y-119059238D01*
X42645714Y-119059238D02*
X42598095Y-119106857D01*
X42598095Y-119106857D02*
X42550476Y-119202095D01*
X42550476Y-119202095D02*
X42550476Y-119297333D01*
X42550476Y-119297333D02*
X42598095Y-119440190D01*
X42598095Y-119440190D02*
X43169523Y-120011619D01*
X43169523Y-120011619D02*
X42550476Y-120011619D01*
X42217142Y-119011619D02*
X41598095Y-119011619D01*
X41598095Y-119011619D02*
X41931428Y-119392571D01*
X41931428Y-119392571D02*
X41788571Y-119392571D01*
X41788571Y-119392571D02*
X41693333Y-119440190D01*
X41693333Y-119440190D02*
X41645714Y-119487809D01*
X41645714Y-119487809D02*
X41598095Y-119583047D01*
X41598095Y-119583047D02*
X41598095Y-119821142D01*
X41598095Y-119821142D02*
X41645714Y-119916380D01*
X41645714Y-119916380D02*
X41693333Y-119964000D01*
X41693333Y-119964000D02*
X41788571Y-120011619D01*
X41788571Y-120011619D02*
X42074285Y-120011619D01*
X42074285Y-120011619D02*
X42169523Y-119964000D01*
X42169523Y-119964000D02*
X42217142Y-119916380D01*
X43979047Y-121991619D02*
X44550475Y-121991619D01*
X44264761Y-121991619D02*
X44264761Y-120991619D01*
X44264761Y-120991619D02*
X44359999Y-121134476D01*
X44359999Y-121134476D02*
X44455237Y-121229714D01*
X44455237Y-121229714D02*
X44550475Y-121277333D01*
X43074285Y-120991619D02*
X43550475Y-120991619D01*
X43550475Y-120991619D02*
X43598094Y-121467809D01*
X43598094Y-121467809D02*
X43550475Y-121420190D01*
X43550475Y-121420190D02*
X43455237Y-121372571D01*
X43455237Y-121372571D02*
X43217142Y-121372571D01*
X43217142Y-121372571D02*
X43121904Y-121420190D01*
X43121904Y-121420190D02*
X43074285Y-121467809D01*
X43074285Y-121467809D02*
X43026666Y-121563047D01*
X43026666Y-121563047D02*
X43026666Y-121801142D01*
X43026666Y-121801142D02*
X43074285Y-121896380D01*
X43074285Y-121896380D02*
X43121904Y-121944000D01*
X43121904Y-121944000D02*
X43217142Y-121991619D01*
X43217142Y-121991619D02*
X43455237Y-121991619D01*
X43455237Y-121991619D02*
X43550475Y-121944000D01*
X43550475Y-121944000D02*
X43598094Y-121896380D01*
X42407618Y-120991619D02*
X42312380Y-120991619D01*
X42312380Y-120991619D02*
X42217142Y-121039238D01*
X42217142Y-121039238D02*
X42169523Y-121086857D01*
X42169523Y-121086857D02*
X42121904Y-121182095D01*
X42121904Y-121182095D02*
X42074285Y-121372571D01*
X42074285Y-121372571D02*
X42074285Y-121610666D01*
X42074285Y-121610666D02*
X42121904Y-121801142D01*
X42121904Y-121801142D02*
X42169523Y-121896380D01*
X42169523Y-121896380D02*
X42217142Y-121944000D01*
X42217142Y-121944000D02*
X42312380Y-121991619D01*
X42312380Y-121991619D02*
X42407618Y-121991619D01*
X42407618Y-121991619D02*
X42502856Y-121944000D01*
X42502856Y-121944000D02*
X42550475Y-121896380D01*
X42550475Y-121896380D02*
X42598094Y-121801142D01*
X42598094Y-121801142D02*
X42645713Y-121610666D01*
X42645713Y-121610666D02*
X42645713Y-121372571D01*
X42645713Y-121372571D02*
X42598094Y-121182095D01*
X42598094Y-121182095D02*
X42550475Y-121086857D01*
X42550475Y-121086857D02*
X42502856Y-121039238D01*
X42502856Y-121039238D02*
X42407618Y-120991619D01*
X41217142Y-121324952D02*
X41217142Y-121991619D01*
X41645713Y-121324952D02*
X41645713Y-121848761D01*
X41645713Y-121848761D02*
X41598094Y-121944000D01*
X41598094Y-121944000D02*
X41502856Y-121991619D01*
X41502856Y-121991619D02*
X41359999Y-121991619D01*
X41359999Y-121991619D02*
X41264761Y-121944000D01*
X41264761Y-121944000D02*
X41217142Y-121896380D01*
X43502857Y-124996380D02*
X43550476Y-125044000D01*
X43550476Y-125044000D02*
X43693333Y-125091619D01*
X43693333Y-125091619D02*
X43788571Y-125091619D01*
X43788571Y-125091619D02*
X43931428Y-125044000D01*
X43931428Y-125044000D02*
X44026666Y-124948761D01*
X44026666Y-124948761D02*
X44074285Y-124853523D01*
X44074285Y-124853523D02*
X44121904Y-124663047D01*
X44121904Y-124663047D02*
X44121904Y-124520190D01*
X44121904Y-124520190D02*
X44074285Y-124329714D01*
X44074285Y-124329714D02*
X44026666Y-124234476D01*
X44026666Y-124234476D02*
X43931428Y-124139238D01*
X43931428Y-124139238D02*
X43788571Y-124091619D01*
X43788571Y-124091619D02*
X43693333Y-124091619D01*
X43693333Y-124091619D02*
X43550476Y-124139238D01*
X43550476Y-124139238D02*
X43502857Y-124186857D01*
X43121904Y-124186857D02*
X43074285Y-124139238D01*
X43074285Y-124139238D02*
X42979047Y-124091619D01*
X42979047Y-124091619D02*
X42740952Y-124091619D01*
X42740952Y-124091619D02*
X42645714Y-124139238D01*
X42645714Y-124139238D02*
X42598095Y-124186857D01*
X42598095Y-124186857D02*
X42550476Y-124282095D01*
X42550476Y-124282095D02*
X42550476Y-124377333D01*
X42550476Y-124377333D02*
X42598095Y-124520190D01*
X42598095Y-124520190D02*
X43169523Y-125091619D01*
X43169523Y-125091619D02*
X42550476Y-125091619D01*
X41645714Y-124091619D02*
X42121904Y-124091619D01*
X42121904Y-124091619D02*
X42169523Y-124567809D01*
X42169523Y-124567809D02*
X42121904Y-124520190D01*
X42121904Y-124520190D02*
X42026666Y-124472571D01*
X42026666Y-124472571D02*
X41788571Y-124472571D01*
X41788571Y-124472571D02*
X41693333Y-124520190D01*
X41693333Y-124520190D02*
X41645714Y-124567809D01*
X41645714Y-124567809D02*
X41598095Y-124663047D01*
X41598095Y-124663047D02*
X41598095Y-124901142D01*
X41598095Y-124901142D02*
X41645714Y-124996380D01*
X41645714Y-124996380D02*
X41693333Y-125044000D01*
X41693333Y-125044000D02*
X41788571Y-125091619D01*
X41788571Y-125091619D02*
X42026666Y-125091619D01*
X42026666Y-125091619D02*
X42121904Y-125044000D01*
X42121904Y-125044000D02*
X42169523Y-124996380D01*
X73990666Y-55961619D02*
X74562094Y-55961619D01*
X74276380Y-55961619D02*
X74276380Y-54961619D01*
X74276380Y-54961619D02*
X74371618Y-55104476D01*
X74371618Y-55104476D02*
X74466856Y-55199714D01*
X74466856Y-55199714D02*
X74562094Y-55247333D01*
X73133523Y-55294952D02*
X73133523Y-55961619D01*
X73562094Y-55294952D02*
X73562094Y-55818761D01*
X73562094Y-55818761D02*
X73514475Y-55914000D01*
X73514475Y-55914000D02*
X73419237Y-55961619D01*
X73419237Y-55961619D02*
X73276380Y-55961619D01*
X73276380Y-55961619D02*
X73181142Y-55914000D01*
X73181142Y-55914000D02*
X73133523Y-55866380D01*
D11*
X73957332Y-57612904D02*
X73995428Y-57651000D01*
X73995428Y-57651000D02*
X74109713Y-57689095D01*
X74109713Y-57689095D02*
X74185904Y-57689095D01*
X74185904Y-57689095D02*
X74300190Y-57651000D01*
X74300190Y-57651000D02*
X74376380Y-57574809D01*
X74376380Y-57574809D02*
X74414475Y-57498619D01*
X74414475Y-57498619D02*
X74452571Y-57346238D01*
X74452571Y-57346238D02*
X74452571Y-57231952D01*
X74452571Y-57231952D02*
X74414475Y-57079571D01*
X74414475Y-57079571D02*
X74376380Y-57003380D01*
X74376380Y-57003380D02*
X74300190Y-56927190D01*
X74300190Y-56927190D02*
X74185904Y-56889095D01*
X74185904Y-56889095D02*
X74109713Y-56889095D01*
X74109713Y-56889095D02*
X73995428Y-56927190D01*
X73995428Y-56927190D02*
X73957332Y-56965285D01*
X73195428Y-57689095D02*
X73652571Y-57689095D01*
X73423999Y-57689095D02*
X73423999Y-56889095D01*
X73423999Y-56889095D02*
X73500190Y-57003380D01*
X73500190Y-57003380D02*
X73576380Y-57079571D01*
X73576380Y-57079571D02*
X73652571Y-57117666D01*
D10*
X95223619Y-53620333D02*
X95223619Y-53048905D01*
X95223619Y-53334619D02*
X94223619Y-53334619D01*
X94223619Y-53334619D02*
X94366476Y-53239381D01*
X94366476Y-53239381D02*
X94461714Y-53144143D01*
X94461714Y-53144143D02*
X94509333Y-53048905D01*
X94556952Y-54477476D02*
X95223619Y-54477476D01*
X94556952Y-54048905D02*
X95080761Y-54048905D01*
X95080761Y-54048905D02*
X95176000Y-54096524D01*
X95176000Y-54096524D02*
X95223619Y-54191762D01*
X95223619Y-54191762D02*
X95223619Y-54334619D01*
X95223619Y-54334619D02*
X95176000Y-54429857D01*
X95176000Y-54429857D02*
X95128380Y-54477476D01*
D11*
X96874904Y-53272714D02*
X96913000Y-53234618D01*
X96913000Y-53234618D02*
X96951095Y-53120333D01*
X96951095Y-53120333D02*
X96951095Y-53044142D01*
X96951095Y-53044142D02*
X96913000Y-52929856D01*
X96913000Y-52929856D02*
X96836809Y-52853666D01*
X96836809Y-52853666D02*
X96760619Y-52815571D01*
X96760619Y-52815571D02*
X96608238Y-52777475D01*
X96608238Y-52777475D02*
X96493952Y-52777475D01*
X96493952Y-52777475D02*
X96341571Y-52815571D01*
X96341571Y-52815571D02*
X96265380Y-52853666D01*
X96265380Y-52853666D02*
X96189190Y-52929856D01*
X96189190Y-52929856D02*
X96151095Y-53044142D01*
X96151095Y-53044142D02*
X96151095Y-53120333D01*
X96151095Y-53120333D02*
X96189190Y-53234618D01*
X96189190Y-53234618D02*
X96227285Y-53272714D01*
X96227285Y-53577475D02*
X96189190Y-53615571D01*
X96189190Y-53615571D02*
X96151095Y-53691761D01*
X96151095Y-53691761D02*
X96151095Y-53882237D01*
X96151095Y-53882237D02*
X96189190Y-53958428D01*
X96189190Y-53958428D02*
X96227285Y-53996523D01*
X96227285Y-53996523D02*
X96303476Y-54034618D01*
X96303476Y-54034618D02*
X96379666Y-54034618D01*
X96379666Y-54034618D02*
X96493952Y-53996523D01*
X96493952Y-53996523D02*
X96951095Y-53539380D01*
X96951095Y-53539380D02*
X96951095Y-54034618D01*
X96151095Y-54301285D02*
X96151095Y-54834619D01*
X96151095Y-54834619D02*
X96951095Y-54491761D01*
D10*
X73990666Y-80091619D02*
X74562094Y-80091619D01*
X74276380Y-80091619D02*
X74276380Y-79091619D01*
X74276380Y-79091619D02*
X74371618Y-79234476D01*
X74371618Y-79234476D02*
X74466856Y-79329714D01*
X74466856Y-79329714D02*
X74562094Y-79377333D01*
X73133523Y-79424952D02*
X73133523Y-80091619D01*
X73562094Y-79424952D02*
X73562094Y-79948761D01*
X73562094Y-79948761D02*
X73514475Y-80044000D01*
X73514475Y-80044000D02*
X73419237Y-80091619D01*
X73419237Y-80091619D02*
X73276380Y-80091619D01*
X73276380Y-80091619D02*
X73181142Y-80044000D01*
X73181142Y-80044000D02*
X73133523Y-79996380D01*
D11*
X74338285Y-81742904D02*
X74376381Y-81781000D01*
X74376381Y-81781000D02*
X74490666Y-81819095D01*
X74490666Y-81819095D02*
X74566857Y-81819095D01*
X74566857Y-81819095D02*
X74681143Y-81781000D01*
X74681143Y-81781000D02*
X74757333Y-81704809D01*
X74757333Y-81704809D02*
X74795428Y-81628619D01*
X74795428Y-81628619D02*
X74833524Y-81476238D01*
X74833524Y-81476238D02*
X74833524Y-81361952D01*
X74833524Y-81361952D02*
X74795428Y-81209571D01*
X74795428Y-81209571D02*
X74757333Y-81133380D01*
X74757333Y-81133380D02*
X74681143Y-81057190D01*
X74681143Y-81057190D02*
X74566857Y-81019095D01*
X74566857Y-81019095D02*
X74490666Y-81019095D01*
X74490666Y-81019095D02*
X74376381Y-81057190D01*
X74376381Y-81057190D02*
X74338285Y-81095285D01*
X73652571Y-81019095D02*
X73804952Y-81019095D01*
X73804952Y-81019095D02*
X73881143Y-81057190D01*
X73881143Y-81057190D02*
X73919238Y-81095285D01*
X73919238Y-81095285D02*
X73995428Y-81209571D01*
X73995428Y-81209571D02*
X74033524Y-81361952D01*
X74033524Y-81361952D02*
X74033524Y-81666714D01*
X74033524Y-81666714D02*
X73995428Y-81742904D01*
X73995428Y-81742904D02*
X73957333Y-81781000D01*
X73957333Y-81781000D02*
X73881143Y-81819095D01*
X73881143Y-81819095D02*
X73728762Y-81819095D01*
X73728762Y-81819095D02*
X73652571Y-81781000D01*
X73652571Y-81781000D02*
X73614476Y-81742904D01*
X73614476Y-81742904D02*
X73576381Y-81666714D01*
X73576381Y-81666714D02*
X73576381Y-81476238D01*
X73576381Y-81476238D02*
X73614476Y-81400047D01*
X73614476Y-81400047D02*
X73652571Y-81361952D01*
X73652571Y-81361952D02*
X73728762Y-81323857D01*
X73728762Y-81323857D02*
X73881143Y-81323857D01*
X73881143Y-81323857D02*
X73957333Y-81361952D01*
X73957333Y-81361952D02*
X73995428Y-81400047D01*
X73995428Y-81400047D02*
X74033524Y-81476238D01*
X73309714Y-81019095D02*
X72776380Y-81019095D01*
X72776380Y-81019095D02*
X73119238Y-81819095D01*
D10*
X73990666Y-104221619D02*
X74562094Y-104221619D01*
X74276380Y-104221619D02*
X74276380Y-103221619D01*
X74276380Y-103221619D02*
X74371618Y-103364476D01*
X74371618Y-103364476D02*
X74466856Y-103459714D01*
X74466856Y-103459714D02*
X74562094Y-103507333D01*
X73133523Y-103554952D02*
X73133523Y-104221619D01*
X73562094Y-103554952D02*
X73562094Y-104078761D01*
X73562094Y-104078761D02*
X73514475Y-104174000D01*
X73514475Y-104174000D02*
X73419237Y-104221619D01*
X73419237Y-104221619D02*
X73276380Y-104221619D01*
X73276380Y-104221619D02*
X73181142Y-104174000D01*
X73181142Y-104174000D02*
X73133523Y-104126380D01*
D11*
X74338285Y-105872904D02*
X74376381Y-105911000D01*
X74376381Y-105911000D02*
X74490666Y-105949095D01*
X74490666Y-105949095D02*
X74566857Y-105949095D01*
X74566857Y-105949095D02*
X74681143Y-105911000D01*
X74681143Y-105911000D02*
X74757333Y-105834809D01*
X74757333Y-105834809D02*
X74795428Y-105758619D01*
X74795428Y-105758619D02*
X74833524Y-105606238D01*
X74833524Y-105606238D02*
X74833524Y-105491952D01*
X74833524Y-105491952D02*
X74795428Y-105339571D01*
X74795428Y-105339571D02*
X74757333Y-105263380D01*
X74757333Y-105263380D02*
X74681143Y-105187190D01*
X74681143Y-105187190D02*
X74566857Y-105149095D01*
X74566857Y-105149095D02*
X74490666Y-105149095D01*
X74490666Y-105149095D02*
X74376381Y-105187190D01*
X74376381Y-105187190D02*
X74338285Y-105225285D01*
X74071619Y-105149095D02*
X73538285Y-105149095D01*
X73538285Y-105149095D02*
X73881143Y-105949095D01*
X73271619Y-105225285D02*
X73233523Y-105187190D01*
X73233523Y-105187190D02*
X73157333Y-105149095D01*
X73157333Y-105149095D02*
X72966857Y-105149095D01*
X72966857Y-105149095D02*
X72890666Y-105187190D01*
X72890666Y-105187190D02*
X72852571Y-105225285D01*
X72852571Y-105225285D02*
X72814476Y-105301476D01*
X72814476Y-105301476D02*
X72814476Y-105377666D01*
X72814476Y-105377666D02*
X72852571Y-105491952D01*
X72852571Y-105491952D02*
X73309714Y-105949095D01*
X73309714Y-105949095D02*
X72814476Y-105949095D01*
D10*
X73990666Y-128351619D02*
X74562094Y-128351619D01*
X74276380Y-128351619D02*
X74276380Y-127351619D01*
X74276380Y-127351619D02*
X74371618Y-127494476D01*
X74371618Y-127494476D02*
X74466856Y-127589714D01*
X74466856Y-127589714D02*
X74562094Y-127637333D01*
X73133523Y-127684952D02*
X73133523Y-128351619D01*
X73562094Y-127684952D02*
X73562094Y-128208761D01*
X73562094Y-128208761D02*
X73514475Y-128304000D01*
X73514475Y-128304000D02*
X73419237Y-128351619D01*
X73419237Y-128351619D02*
X73276380Y-128351619D01*
X73276380Y-128351619D02*
X73181142Y-128304000D01*
X73181142Y-128304000D02*
X73133523Y-128256380D01*
D11*
X74338285Y-130002904D02*
X74376381Y-130041000D01*
X74376381Y-130041000D02*
X74490666Y-130079095D01*
X74490666Y-130079095D02*
X74566857Y-130079095D01*
X74566857Y-130079095D02*
X74681143Y-130041000D01*
X74681143Y-130041000D02*
X74757333Y-129964809D01*
X74757333Y-129964809D02*
X74795428Y-129888619D01*
X74795428Y-129888619D02*
X74833524Y-129736238D01*
X74833524Y-129736238D02*
X74833524Y-129621952D01*
X74833524Y-129621952D02*
X74795428Y-129469571D01*
X74795428Y-129469571D02*
X74757333Y-129393380D01*
X74757333Y-129393380D02*
X74681143Y-129317190D01*
X74681143Y-129317190D02*
X74566857Y-129279095D01*
X74566857Y-129279095D02*
X74490666Y-129279095D01*
X74490666Y-129279095D02*
X74376381Y-129317190D01*
X74376381Y-129317190D02*
X74338285Y-129355285D01*
X74071619Y-129279095D02*
X73538285Y-129279095D01*
X73538285Y-129279095D02*
X73881143Y-130079095D01*
X73309714Y-129279095D02*
X72776380Y-129279095D01*
X72776380Y-129279095D02*
X73119238Y-130079095D01*
D12*
X39210000Y-63551000D02*
X46510000Y-63551000D01*
X39210000Y-66851000D02*
X39210000Y-63551000D01*
X40210000Y-67851000D02*
X39210000Y-66851000D01*
X46510000Y-63551000D02*
X46510000Y-67851000D01*
X46510000Y-67851000D02*
X40210000Y-67851000D01*
X39210000Y-68631000D02*
X46510000Y-68631000D01*
X39210000Y-71931000D02*
X39210000Y-68631000D01*
X40210000Y-72931000D02*
X39210000Y-71931000D01*
X46510000Y-68631000D02*
X46510000Y-72931000D01*
X46510000Y-72931000D02*
X40210000Y-72931000D01*
X39210000Y-73711000D02*
X46510000Y-73711000D01*
X39210000Y-77011000D02*
X39210000Y-73711000D01*
X40210000Y-78011000D02*
X39210000Y-77011000D01*
X46510000Y-73711000D02*
X46510000Y-78011000D01*
X46510000Y-78011000D02*
X40210000Y-78011000D01*
X39210000Y-85395000D02*
X46510000Y-85395000D01*
X39210000Y-88695000D02*
X39210000Y-85395000D01*
X40210000Y-89695000D02*
X39210000Y-88695000D01*
X46510000Y-85395000D02*
X46510000Y-89695000D01*
X46510000Y-89695000D02*
X40210000Y-89695000D01*
X39210000Y-90475000D02*
X46510000Y-90475000D01*
X39210000Y-93775000D02*
X39210000Y-90475000D01*
X40210000Y-94775000D02*
X39210000Y-93775000D01*
X46510000Y-90475000D02*
X46510000Y-94775000D01*
X46510000Y-94775000D02*
X40210000Y-94775000D01*
X39210000Y-95555000D02*
X46510000Y-95555000D01*
X39210000Y-98855000D02*
X39210000Y-95555000D01*
X40210000Y-99855000D02*
X39210000Y-98855000D01*
X46510000Y-95555000D02*
X46510000Y-99855000D01*
X46510000Y-99855000D02*
X40210000Y-99855000D01*
X39210000Y-100635000D02*
X46510000Y-100635000D01*
X39210000Y-103935000D02*
X39210000Y-100635000D01*
X40210000Y-104935000D02*
X39210000Y-103935000D01*
X46510000Y-100635000D02*
X46510000Y-104935000D01*
X46510000Y-104935000D02*
X40210000Y-104935000D01*
X39210000Y-112319000D02*
X46510000Y-112319000D01*
X39210000Y-115619000D02*
X39210000Y-112319000D01*
X40210000Y-116619000D02*
X39210000Y-115619000D01*
X46510000Y-112319000D02*
X46510000Y-116619000D01*
X46510000Y-116619000D02*
X40210000Y-116619000D01*
X39210000Y-117399000D02*
X46510000Y-117399000D01*
X39210000Y-120699000D02*
X39210000Y-117399000D01*
X40210000Y-121699000D02*
X39210000Y-120699000D01*
X46510000Y-117399000D02*
X46510000Y-121699000D01*
X46510000Y-121699000D02*
X40210000Y-121699000D01*
X39210000Y-122479000D02*
X46510000Y-122479000D01*
X39210000Y-125779000D02*
X39210000Y-122479000D01*
X40210000Y-126779000D02*
X39210000Y-125779000D01*
X46510000Y-122479000D02*
X46510000Y-126779000D01*
X46510000Y-126779000D02*
X40210000Y-126779000D01*
X72224000Y-56519000D02*
X72224000Y-58119000D01*
X72224000Y-58119000D02*
X75424000Y-58119000D01*
X75424000Y-56519000D02*
X72224000Y-56519000D01*
X75424000Y-58119000D02*
X75424000Y-56519000D01*
X95781000Y-55387000D02*
X97381000Y-55387000D01*
X97381000Y-55387000D02*
X97381000Y-52187000D01*
X95781000Y-52187000D02*
X95781000Y-55387000D01*
X97381000Y-52187000D02*
X95781000Y-52187000D01*
X72224000Y-80649000D02*
X72224000Y-82249000D01*
X72224000Y-82249000D02*
X75424000Y-82249000D01*
X75424000Y-80649000D02*
X72224000Y-80649000D01*
X75424000Y-82249000D02*
X75424000Y-80649000D01*
X72224000Y-104779000D02*
X72224000Y-106379000D01*
X72224000Y-106379000D02*
X75424000Y-106379000D01*
X75424000Y-104779000D02*
X72224000Y-104779000D01*
X75424000Y-106379000D02*
X75424000Y-104779000D01*
X72224000Y-128909000D02*
X72224000Y-130509000D01*
X72224000Y-130509000D02*
X75424000Y-130509000D01*
X75424000Y-128909000D02*
X72224000Y-128909000D01*
X75424000Y-130509000D02*
X75424000Y-128909000D01*
M02*
