M48
; DRILL file {KiCad 7.0.1} date 2023-05-03T08:50:31 CEST
; FORMAT={-:-/ absolute / metric / decimal}
; #@! TF.CreationDate,2023-05-03T08:50:31+02:00
; #@! TF.GenerationSoftware,Kicad,Pcbnew,7.0.1
; #@! TF.FileFunction,Plated,1,4,PTH
FMAT,2
METRIC
; #@! TA.AperFunction,Plated,PTH,ViaDrill
T1C0.400
; #@! TA.AperFunction,Plated,PTH,ComponentDrill
T2C0.800
; #@! TA.AperFunction,Plated,PTH,ComponentDrill
T3C1.500
; #@! TA.AperFunction,Plated,PTH,ComponentDrill
T4C1.700
; #@! TA.AperFunction,Plated,PTH,ComponentDrill
T5C2.500
%
G90
G05
T1
X50.607Y-54.525
X50.607Y-62.145
X50.607Y-78.655
X50.607Y-86.148
X50.607Y-102.785
X50.607Y-110.405
X50.607Y-126.915
X50.607Y-134.535
X54.417Y-57.065
X54.417Y-58.335
X54.417Y-59.605
X54.417Y-81.195
X54.417Y-82.465
X54.417Y-83.735
X54.417Y-105.325
X54.417Y-106.595
X54.417Y-107.865
X54.417Y-129.455
X54.417Y-130.725
X54.417Y-131.995
X56.703Y-58.335
X56.703Y-82.465
X56.703Y-106.595
X56.703Y-130.725
X56.957Y-101.388
X57.211Y-53.128
X57.211Y-77.258
X57.211Y-125.518
X59.751Y-59.605
X59.751Y-83.735
X59.751Y-107.865
X59.751Y-131.995
X70.165Y-57.065
X70.165Y-81.322
X70.165Y-105.452
X70.165Y-129.582
X76.896Y-55.414
X76.896Y-79.544
X76.896Y-103.674
X76.896Y-127.804
X93.445Y-132.608
X93.445Y-140.108
X93.445Y-145.108
X94.168Y-55.414
X94.168Y-56.516
X94.549Y-109.643
X95.184Y-52.366
X95.345Y-85.308
X95.945Y-130.108
X95.945Y-135.108
X98.613Y-55.922
X98.613Y-60.875
X99.883Y-76.623
X100.137Y-81.195
X101.534Y-54.652
X101.534Y-56.684
X102.804Y-80.687
X103.195Y-110.908
X103.439Y-68.876
X103.445Y-130.108
X103.445Y-135.108
X104.074Y-82.211
X104.455Y-106.976
X104.582Y-117.771
X104.582Y-125.264
X104.963Y-91.482
X105.725Y-111.294
X105.852Y-121.327
X106.614Y-89.196
X106.868Y-106.976
X107.122Y-125.137
X108.145Y-110.358
X108.646Y-87.418
X109.408Y-81.576
X109.408Y-104.944
X110.945Y-130.108
X110.945Y-135.108
X110.945Y-140.108
X114.488Y-101.515
X120.945Y-50.108
X120.945Y-55.108
X120.945Y-60.108
X120.945Y-65.108
X126.695Y-78.424
X126.695Y-101.403
X126.695Y-124.153
X128.445Y-135.108
X128.445Y-140.108
X130.945Y-50.108
X130.945Y-55.108
X130.945Y-60.108
X130.945Y-65.108
X130.945Y-90.108
X130.945Y-110.108
X140.945Y-60.108
X140.945Y-65.108
X140.945Y-80.108
X140.945Y-90.108
X140.945Y-100.108
X140.945Y-110.108
X140.945Y-120.108
X140.945Y-127.608
X140.945Y-135.108
T2
X33.208Y-56.684
X33.208Y-61.684
X36.002Y-90.212
X36.002Y-100.372
X37.526Y-58.208
X37.526Y-61.51
X37.526Y-80.052
X37.526Y-83.354
X37.526Y-106.976
X37.526Y-110.278
X37.526Y-128.82
X37.526Y-132.122
X40.447Y-49.826
X40.447Y-53.326
X40.447Y-137.131
X40.447Y-140.631
X47.686Y-58.208
X47.686Y-61.51
X47.686Y-80.052
X47.686Y-83.354
X47.686Y-106.976
X47.686Y-110.278
X47.686Y-128.82
X47.686Y-132.122
X50.48Y-65.32
X50.48Y-68.495
X50.48Y-89.45
X50.48Y-92.625
X50.48Y-113.58
X50.48Y-116.755
X50.48Y-137.71
X50.48Y-140.885
X50.607Y-48.175
X50.607Y-51.35
X50.607Y-72.305
X50.607Y-75.48
X50.607Y-96.435
X50.607Y-99.737
X50.607Y-120.565
X50.607Y-123.867
X60.64Y-65.32
X60.64Y-68.495
X60.64Y-89.45
X60.64Y-92.625
X60.64Y-113.58
X60.64Y-116.755
X60.64Y-137.71
X60.64Y-140.885
X60.767Y-48.175
X60.767Y-51.35
X60.767Y-72.305
X60.767Y-75.48
X60.767Y-96.435
X60.767Y-99.737
X60.767Y-120.565
X60.767Y-123.867
X62.498Y-57.7
X62.498Y-81.83
X62.498Y-105.96
X62.498Y-130.09
X64.323Y-48.175
X64.323Y-67.352
X64.323Y-72.305
X64.323Y-91.482
X64.323Y-96.435
X64.323Y-115.612
X64.323Y-120.565
X64.323Y-139.742
X67.498Y-57.7
X67.498Y-81.83
X67.498Y-105.96
X67.498Y-130.09
X74.483Y-48.175
X74.483Y-67.352
X74.483Y-72.305
X74.483Y-91.482
X74.483Y-96.435
X74.483Y-115.612
X74.483Y-120.565
X74.483Y-139.742
X78.039Y-48.908
X78.039Y-66.082
X78.039Y-73.448
X78.039Y-90.212
X78.039Y-97.578
X78.039Y-114.342
X78.039Y-121.708
X78.039Y-138.472
X79.944Y-57.7
X79.944Y-81.83
X79.944Y-105.96
X79.944Y-130.09
X84.944Y-57.7
X84.944Y-81.83
X84.944Y-105.96
X84.944Y-130.09
X88.199Y-48.908
X88.199Y-66.082
X88.199Y-73.448
X88.199Y-90.212
X88.199Y-97.578
X88.199Y-114.342
X88.199Y-121.708
X88.199Y-138.472
X88.961Y-51.858
X88.961Y-62.018
X92.009Y-98.594
X92.089Y-113.961
X92.216Y-122.47
X92.771Y-64.558
X92.771Y-74.718
X92.771Y-77.512
X92.771Y-87.672
X94.549Y-90.339
X94.549Y-95.339
X95.311Y-49.445
X96.581Y-64.558
X96.581Y-74.718
X97.089Y-113.961
X97.216Y-122.47
X100.311Y-49.445
X102.169Y-98.594
X102.423Y-88.942
X102.423Y-93.942
X103.185Y-74.845
X105.725Y-48.128
X105.725Y-53.128
X107.122Y-95.292
X108.185Y-74.845
X110.805Y-47.032
X110.805Y-57.192
X112.122Y-95.292
X114.488Y-73.448
X117.028Y-70.908
X117.028Y-75.988
T3
X29.017Y-82.846
X29.017Y-108.754
X134.681Y-80.306
X134.681Y-103.293
X134.681Y-126.153
T4
X26.477Y-80.306
X26.477Y-85.386
X26.477Y-106.214
X26.477Y-111.294
X31.557Y-80.306
X31.557Y-85.386
X31.557Y-106.214
X31.557Y-111.294
X132.141Y-77.766
X132.141Y-82.846
X132.141Y-100.753
X132.141Y-105.833
X132.141Y-123.613
X132.141Y-128.693
X137.221Y-77.766
X137.221Y-82.846
X137.221Y-100.753
X137.221Y-105.833
X137.221Y-123.613
X137.221Y-128.693
T5
X24.572Y-58.208
X24.572Y-133.519
X32.192Y-140.25
X32.319Y-51.35
T0
M30
