G04 #@! TF.GenerationSoftware,KiCad,Pcbnew,7.0.1*
G04 #@! TF.CreationDate,2023-05-02T10:47:00+02:00*
G04 #@! TF.ProjectId,main,6d61696e-2e6b-4696-9361-645f70636258,rev?*
G04 #@! TF.SameCoordinates,Original*
G04 #@! TF.FileFunction,Soldermask,Bot*
G04 #@! TF.FilePolarity,Negative*
%FSLAX46Y46*%
G04 Gerber Fmt 4.6, Leading zero omitted, Abs format (unit mm)*
G04 Created by KiCad (PCBNEW 7.0.1) date 2023-05-02 10:47:00*
%MOMM*%
%LPD*%
G01*
G04 APERTURE LIST*
G04 Aperture macros list*
%AMRoundRect*
0 Rectangle with rounded corners*
0 $1 Rounding radius*
0 $2 $3 $4 $5 $6 $7 $8 $9 X,Y pos of 4 corners*
0 Add a 4 corners polygon primitive as box body*
4,1,4,$2,$3,$4,$5,$6,$7,$8,$9,$2,$3,0*
0 Add four circle primitives for the rounded corners*
1,1,$1+$1,$2,$3*
1,1,$1+$1,$4,$5*
1,1,$1+$1,$6,$7*
1,1,$1+$1,$8,$9*
0 Add four rect primitives between the rounded corners*
20,1,$1+$1,$2,$3,$4,$5,0*
20,1,$1+$1,$4,$5,$6,$7,0*
20,1,$1+$1,$6,$7,$8,$9,0*
20,1,$1+$1,$8,$9,$2,$3,0*%
G04 Aperture macros list end*
%ADD10C,1.440000*%
%ADD11C,4.000000*%
%ADD12C,3.200000*%
%ADD13C,1.600000*%
%ADD14O,1.600000X1.600000*%
%ADD15C,2.050000*%
%ADD16C,2.250000*%
%ADD17R,1.600000X1.600000*%
%ADD18RoundRect,0.250000X-0.787500X-1.025000X0.787500X-1.025000X0.787500X1.025000X-0.787500X1.025000X0*%
%ADD19RoundRect,0.250000X-0.325000X-0.650000X0.325000X-0.650000X0.325000X0.650000X-0.325000X0.650000X0*%
%ADD20RoundRect,0.250000X0.650000X-0.325000X0.650000X0.325000X-0.650000X0.325000X-0.650000X-0.325000X0*%
G04 APERTURE END LIST*
D10*
X117028000Y-75988000D03*
X114488000Y-73448000D03*
X117028000Y-70908000D03*
D11*
X32319000Y-51350000D03*
D12*
X140015000Y-141520000D03*
D13*
X92009000Y-98594000D03*
D14*
X102169000Y-98594000D03*
D12*
X25207000Y-141520000D03*
D15*
X134681000Y-80306000D03*
D16*
X132141000Y-77766000D03*
X132141000Y-82846000D03*
X137221000Y-77766000D03*
X137221000Y-82846000D03*
D15*
X29017000Y-82846000D03*
D16*
X26477000Y-80306000D03*
X26477000Y-85386000D03*
X31557000Y-80306000D03*
X31557000Y-85386000D03*
D15*
X29017000Y-108754000D03*
D16*
X26477000Y-106214000D03*
X26477000Y-111294000D03*
X31557000Y-106214000D03*
X31557000Y-111294000D03*
D11*
X32192000Y-140250000D03*
X24572000Y-58208000D03*
X24572000Y-133519000D03*
D15*
X134681000Y-103293000D03*
D16*
X132141000Y-100753000D03*
X132141000Y-105833000D03*
X137221000Y-100753000D03*
X137221000Y-105833000D03*
D15*
X134681000Y-126153000D03*
D16*
X132141000Y-123613000D03*
X132141000Y-128693000D03*
X137221000Y-123613000D03*
X137221000Y-128693000D03*
D13*
X97216000Y-122470000D03*
X92216000Y-122470000D03*
X97089000Y-113961000D03*
X92089000Y-113961000D03*
X67498000Y-57700000D03*
X62498000Y-57700000D03*
X79944000Y-57700000D03*
X84944000Y-57700000D03*
X33208000Y-56684000D03*
X33208000Y-61684000D03*
X95311000Y-49445000D03*
X100311000Y-49445000D03*
X105725000Y-53128000D03*
X105725000Y-48128000D03*
X102423000Y-88942000D03*
X102423000Y-93942000D03*
X103185000Y-74845000D03*
X108185000Y-74845000D03*
X94549000Y-95339000D03*
X94549000Y-90339000D03*
X112122000Y-95292000D03*
X107122000Y-95292000D03*
X67498000Y-81830000D03*
X62498000Y-81830000D03*
X79944000Y-81830000D03*
X84944000Y-81830000D03*
X67498000Y-105960000D03*
X62498000Y-105960000D03*
X79944000Y-105960000D03*
X84944000Y-105960000D03*
X67498000Y-130090000D03*
X62498000Y-130090000D03*
X79944000Y-130090000D03*
X84944000Y-130090000D03*
D17*
X40447000Y-49826000D03*
D13*
X40447000Y-53326000D03*
D17*
X40447000Y-137131000D03*
D13*
X40447000Y-140631000D03*
X88199000Y-48908000D03*
D14*
X78039000Y-48908000D03*
D13*
X88199000Y-66082000D03*
D14*
X78039000Y-66082000D03*
D13*
X47686000Y-58208000D03*
D14*
X37526000Y-58208000D03*
D13*
X47686000Y-61510000D03*
D14*
X37526000Y-61510000D03*
D13*
X60767000Y-51350000D03*
D14*
X50607000Y-51350000D03*
D13*
X50480000Y-65320000D03*
D14*
X60640000Y-65320000D03*
D13*
X60767000Y-48175000D03*
D14*
X50607000Y-48175000D03*
D13*
X74483000Y-48175000D03*
D14*
X64323000Y-48175000D03*
D13*
X74483000Y-67352000D03*
D14*
X64323000Y-67352000D03*
D13*
X50480000Y-68495000D03*
D14*
X60640000Y-68495000D03*
D13*
X36002000Y-100372000D03*
D14*
X36002000Y-90212000D03*
D13*
X88961000Y-62018000D03*
D14*
X88961000Y-51858000D03*
D13*
X110805000Y-47032000D03*
D14*
X110805000Y-57192000D03*
D13*
X96581000Y-74718000D03*
D14*
X96581000Y-64558000D03*
D13*
X92771000Y-74718000D03*
D14*
X92771000Y-64558000D03*
D13*
X92771000Y-87672000D03*
D14*
X92771000Y-77512000D03*
D13*
X47686000Y-80052000D03*
D14*
X37526000Y-80052000D03*
D13*
X47686000Y-83354000D03*
D14*
X37526000Y-83354000D03*
D13*
X60767000Y-75480000D03*
D14*
X50607000Y-75480000D03*
D13*
X50480000Y-89450000D03*
D14*
X60640000Y-89450000D03*
D13*
X60767000Y-72305000D03*
D14*
X50607000Y-72305000D03*
D13*
X74483000Y-72305000D03*
D14*
X64323000Y-72305000D03*
D13*
X74483000Y-91482000D03*
D14*
X64323000Y-91482000D03*
D13*
X50480000Y-92625000D03*
D14*
X60640000Y-92625000D03*
D13*
X88199000Y-73448000D03*
D14*
X78039000Y-73448000D03*
D13*
X88199000Y-90212000D03*
D14*
X78039000Y-90212000D03*
D13*
X88199000Y-97578000D03*
D14*
X78039000Y-97578000D03*
D13*
X88199000Y-114342000D03*
D14*
X78039000Y-114342000D03*
D13*
X47686000Y-106976000D03*
D14*
X37526000Y-106976000D03*
D13*
X47686000Y-110278000D03*
D14*
X37526000Y-110278000D03*
D13*
X60767000Y-99737000D03*
D14*
X50607000Y-99737000D03*
D13*
X50480000Y-113580000D03*
D14*
X60640000Y-113580000D03*
D13*
X60767000Y-96435000D03*
D14*
X50607000Y-96435000D03*
D13*
X74483000Y-96435000D03*
D14*
X64323000Y-96435000D03*
D13*
X74483000Y-115612000D03*
D14*
X64323000Y-115612000D03*
D13*
X50480000Y-116755000D03*
D14*
X60640000Y-116755000D03*
D13*
X88199000Y-121708000D03*
D14*
X78039000Y-121708000D03*
D13*
X88199000Y-138472000D03*
D14*
X78039000Y-138472000D03*
D13*
X47686000Y-128820000D03*
D14*
X37526000Y-128820000D03*
D13*
X47686000Y-132122000D03*
D14*
X37526000Y-132122000D03*
D13*
X60767000Y-123867000D03*
D14*
X50607000Y-123867000D03*
D13*
X50480000Y-137710000D03*
D14*
X60640000Y-137710000D03*
D13*
X60767000Y-120565000D03*
D14*
X50607000Y-120565000D03*
D13*
X74483000Y-120565000D03*
D14*
X64323000Y-120565000D03*
D13*
X74483000Y-139742000D03*
D14*
X64323000Y-139742000D03*
D13*
X50480000Y-140885000D03*
D14*
X60640000Y-140885000D03*
D12*
X140015000Y-50080000D03*
X25207000Y-50080000D03*
D18*
X39747500Y-65701000D03*
X45972500Y-65701000D03*
X39747500Y-70781000D03*
X45972500Y-70781000D03*
X39747500Y-75861000D03*
X45972500Y-75861000D03*
X39747500Y-87545000D03*
X45972500Y-87545000D03*
X39747500Y-92625000D03*
X45972500Y-92625000D03*
X39747500Y-97705000D03*
X45972500Y-97705000D03*
X39747500Y-102785000D03*
X45972500Y-102785000D03*
X39747500Y-114469000D03*
X45972500Y-114469000D03*
X39747500Y-119549000D03*
X45972500Y-119549000D03*
X39747500Y-124629000D03*
X45972500Y-124629000D03*
D19*
X72349000Y-57319000D03*
X75299000Y-57319000D03*
D20*
X96581000Y-55262000D03*
X96581000Y-52312000D03*
D19*
X72349000Y-81449000D03*
X75299000Y-81449000D03*
X72349000Y-105579000D03*
X75299000Y-105579000D03*
X72349000Y-129709000D03*
X75299000Y-129709000D03*
M02*
